<svg width="157" height="54" viewBox="0 0 179 54" fill="none" xmlns="http://www.w3.org/2000/svg">
<path d="M171 27C171 27.0203 170.999 27.0804 170.956 27.2082C170.91 27.3456 170.803 27.5938 170.561 27.9506C170.054 28.6981 169.069 29.75 167.321 30.9965C163.787 33.5172 158.155 36.1161 150.475 38.4328C135.217 43.0359 113.657 46 89.5 46C65.3428 46 43.7827 43.0359 28.5245 38.4328C20.8449 36.1161 15.2129 33.5172 11.6788 30.9965C9.93101 29.75 8.94593 28.6981 8.43893 27.9506C8.19687 27.5938 8.09023 27.3456 8.04399 27.2082C8.00096 27.0804 8 27.0203 8 27C8 26.9797 8.00096 26.9196 8.04399 26.7918C8.09023 26.6544 8.19687 26.4062 8.43893 26.0494C8.94593 25.3019 9.93101 24.25 11.6788 23.0035C15.2129 20.4828 20.8449 17.8839 28.5245 15.5672C43.7827 10.9641 65.3428 8 89.5 8C113.657 8 135.217 10.9641 150.475 15.5672C158.155 17.8839 163.787 20.4828 167.321 23.0035C169.069 24.25 170.054 25.3019 170.561 26.0494C170.803 26.4062 170.91 26.6544 170.956 26.7918C170.999 26.9196 171 26.9797 171 27Z" fill="#36491E" stroke="#948B3B" stroke-width="16"/>
</svg>
